<?xml version="1.0" encoding="UTF-8"?>
<svg width="22px" height="22px" viewBox="0 0 22 22" version="1.1" xmlns="http://www.w3.org/2000/svg" xmlns:xlink="http://www.w3.org/1999/xlink">
    <!-- Generator: Sketch 41.2 (35397) - http://www.bohemiancoding.com/sketch -->
    <title>ic_countdown</title>
    <desc>Created with Sketch.</desc>
    <defs></defs>
    <g id="Page-1" stroke="none" stroke-width="1" fill="none" fill-rule="evenodd">
        <g id="10_GameGuides_Overview" transform="translate(-69.000000, -335.000000)">
            <g id="Group-3" transform="translate(43.000000, 333.000000)">
                <g id="ic_countdown" transform="translate(25.000000, 0.000000)">
                    <g id="Group">
                        <g id="Frames-24px">
                            <rect id="Rectangle-path" x="0" y="0" width="24" height="24"></rect>
                        </g>
                        <g id="Outline" transform="translate(1.000000, 2.000000)" fill="#FFFFFF">
                            <path d="M19.754,19.015 L19.582,19 C19.524,19 19.428,19.006 19.298,19.016 C19.119,19.029 18.847,19.05 18.517,19.05 C15.796,19.05 14.337,17.716 14.059,15.001 L18,15.001 L18,13.001 L14,13.001 L14,11.001 L17.363,11.001 C20.007,11 22,9.124 22,6.636 C22,4.08 19.92,2 17.363,2 C16.509,2 15.743,2.168 15.092,2.492 C14.311,1.003 12.75,0 11,0 C9.25,0 7.689,1.003 6.908,2.492 C6.256,2.168 5.491,2 4.637,2 C2.08,2 0,4.08 0,6.636 C0,9.124 1.993,11 4.637,11 L8,11 L8,13 L4,13 L4,15 L7.942,15 C7.664,17.715 6.204,19.049 3.484,19.049 C3.153,19.049 2.881,19.028 2.703,19.015 C2.572,19.006 2.476,19 2.418,19 L2.246,19.015 C1.472,19.15 0.938,19.842 1.006,20.626 C1.074,21.41 1.717,22 2.504,22 L19.496,22 C20.283,22 20.927,21.409 20.994,20.625 C21.062,19.842 20.528,19.15 19.754,19.015 Z M9,9 L4.637,9 C3.327,9 2,8.188 2,6.636 C2,5.183 3.183,4 4.637,4 C5.539,4 6.216,4.262 6.647,4.777 C6.901,5.081 7.309,5.206 7.689,5.097 C8.069,4.988 8.35,4.665 8.404,4.274 C8.586,2.978 9.702,2 11,2 C12.298,2 13.414,2.978 13.596,4.274 C13.651,4.665 13.931,4.988 14.311,5.097 C14.69,5.205 15.1,5.081 15.353,4.777 C15.785,4.262 16.461,4 17.363,4 C18.817,4 20,5.183 20,6.636 C20,8.188 18.673,9 17.363,9 L13,9 C12.448,9 12,9.448 12,10 L12,13 L10,13 L10,10 C10,9.448 9.552,9 9,9 Z M7.365,20 C8.862,18.995 9.76,17.292 9.958,15 L12.041,15 C12.225,17.201 13.037,18.838 14.463,19.875 C14.522,19.918 14.582,19.96 14.642,20 L7.365,20 Z" id="Shape"></path>
                        </g>
                    </g>
                </g>
            </g>
        </g>
    </g>
</svg>