<?xml version="1.0" encoding="UTF-8"?>
<svg width="24px" height="24px" viewBox="0 0 24 24" version="1.1" xmlns="http://www.w3.org/2000/svg" xmlns:xlink="http://www.w3.org/1999/xlink">
    <!-- Generator: Sketch 41.2 (35397) - http://www.bohemiancoding.com/sketch -->
    <title>ic_steam</title>
    <desc>Created with Sketch.</desc>
    <defs></defs>
    <g id="Page-1" stroke="none" stroke-width="1" fill="none" fill-rule="evenodd">
        <g id="20_Countdown" transform="translate(-303.000000, -747.000000)" fill="#FFFFFF">
            <g id="ic_steam" transform="translate(303.000000, 747.000000)">
                <path d="M19.4062501,8.10937516 C19.4062501,7.27604194 19.1093745,6.56510418 18.5156251,5.97656283 C17.9218749,5.38802055 17.2083331,5.09374987 16.375,5.09374987 C15.5416668,5.09374987 14.830729,5.39062455 14.2421877,5.98437483 C13.6536454,6.57812512 13.3593748,7.28645794 13.3593748,8.10937516 C13.3593748,8.94270838 13.6536454,9.65364613 14.2421877,10.2421875 C14.830729,10.8307288 15.5416668,11.1250004 16.375,11.1250004 C17.2083331,11.1250004 17.9218749,10.8307288 18.5156251,10.2421875 C19.1093745,9.65364613 19.4062501,8.94270838 19.4062501,8.10937516 Z M9.87499976,17.2968754 C9.87499976,18.1614585 9.57291616,18.8932292 8.9687499,19.4921875 C8.36458364,20.0911458 7.63541698,20.3906254 6.78124992,20.3906254 C6.1979166,20.3906254 5.66145807,20.239584 5.17187528,19.9375004 C4.68229155,19.6354168 4.30729129,19.2343756 4.04687542,18.7343749 C4.58854195,18.9427089 5.09895861,19.151042 5.57812447,19.3593751 C6.2031246,19.6093749 6.82812472,19.6015629 7.45312485,19.3359381 C8.07812498,19.0703124 8.52083297,18.6197924 8.78124977,17.9843753 C9.03124963,17.3593751 9.02343763,16.734375 8.75781284,16.1093748 C8.49218711,15.4843756 8.04166618,15.0468756 7.40625005,14.7968748 L6.12499993,14.2812501 C6.35416686,14.2291664 6.57291686,14.2031255 6.78124992,14.2031255 C7.63541698,14.2031255 8.36458364,14.5026041 8.9687499,15.1015624 C9.57291616,15.7005207 9.87499976,16.4322923 9.87499976,17.2968754 Z M24,4.49999959 L24,19.5000004 C24,20.7395838 23.559896,21.7994799 22.6796871,22.679688 C21.7994791,23.559896 20.739583,24 19.4999997,24 L4.50000035,24 C3.26041703,24 2.20052091,23.559896 1.32031292,22.679688 C0.440103995,21.7994799 0,20.7395838 0,19.5000004 L0,17.1093753 L2.6874997,18.1875004 C2.8958337,19.145834 3.3828125,19.9375004 4.14843702,20.5625006 C4.91406248,21.1875007 5.79166647,21.5000003 6.78124992,21.5000003 C7.86458298,21.5000003 8.80729164,21.135417 9.60937496,20.4062503 C10.4114583,19.6770836 10.8645832,18.7760417 10.9687497,17.7031256 L16.359375,13.7656254 C17.9218749,13.7656254 19.2526038,13.216146 20.3515627,12.1171879 C21.4505207,11.018229 22.0000002,9.692708 22.0000002,8.14062503 C22.0000002,6.57812512 21.4505207,5.24739615 20.3515627,4.14843718 C19.2526038,3.04947915 17.9218749,2.49999967 16.359375,2.49999967 C14.8177081,2.49999967 13.5000001,3.04427022 12.4062501,4.13281225 C11.3125001,5.22135428 10.7552087,6.53645831 10.7343748,8.07812529 L7.21874992,13.1093754 C7.12500032,13.0989585 6.97916699,13.0937505 6.78124992,13.0937505 C5.99999953,13.0937505 5.28645781,13.2864586 4.64062475,13.6718749 L0,11.8125003 L0,4.49999959 C0,3.26041622 0.440103995,2.20052099 1.32031292,1.32031204 C2.20052091,0.440104012 3.26041703,0 4.50000035,0 L19.4999997,0 C20.739583,0 21.7994791,0.440104012 22.6796871,1.32031204 C23.559896,2.20052099 24,3.26041622 24,4.49999959 Z M20.1406247,8.14062503 C20.1406247,9.18229132 19.7708334,10.0703123 19.0312498,10.8046879 C18.2916662,11.5390626 17.4010413,11.9062499 16.359375,11.9062499 C15.3177078,11.9062499 14.4296869,11.5390626 13.6953122,10.8046879 C12.9609376,10.0703123 12.5937503,9.18229132 12.5937503,8.14062503 C12.5937503,7.0989578 12.9609376,6.20833284 13.6953122,5.46875015 C14.4296869,4.72916653 15.3177078,4.35937519 16.359375,4.35937519 C17.4114582,4.35937519 18.3046871,4.72656253 19.0390627,5.46093722 C19.7734374,6.19531284 20.1406247,7.0885418 20.1406247,8.14062503 Z" id="Shape"></path>
            </g>
        </g>
    </g>
</svg>