<?xml version="1.0" encoding="UTF-8"?>
<svg width="18px" height="19px" viewBox="0 0 18 19" version="1.1" xmlns="http://www.w3.org/2000/svg" xmlns:xlink="http://www.w3.org/1999/xlink">
    <!-- Generator: Sketch 41.2 (35397) - http://www.bohemiancoding.com/sketch -->
    <title>ic_trashtalk</title>
    <desc>Created with Sketch.</desc>
    <defs></defs>
    <g id="Page-1" stroke="none" stroke-width="1" fill="none" fill-rule="evenodd">
        <g id="10_GameGuides_Overview" transform="translate(-71.000000, -429.000000)">
            <g id="Group-4" transform="translate(51.000000, 426.000000)">
                <g id="ic_trashtalk" transform="translate(17.000000, 0.000000)">
                    <g id="Group">
                        <g id="Frames-24px">
                            <rect id="Rectangle-path" x="0" y="0" width="24" height="24"></rect>
                        </g>
                        <g id="Outline" transform="translate(3.000000, 3.000000)" fill="#FFFFFF">
                            <g id="Group">
                                <path d="M2,17 C2,18.103 2.897,19 4,19 L14,19 C15.103,19 16,18.103 16,17 L16,5 L2,5 L2,17 Z M4,7 L14,7 L14.001,17 L4,17 L4,7 Z" id="Shape"></path>
                                <polygon id="Shape" points="12 2 12 0 6 0 6 2 0 2 0 4 18 4 18 2"></polygon>
                                <rect id="Rectangle-path" x="6" y="9" width="2" height="6"></rect>
                                <rect id="Rectangle-path" x="10" y="9" width="2" height="6"></rect>
                            </g>
                        </g>
                    </g>
                </g>
            </g>
        </g>
    </g>
</svg>